<?xml version="1.0" encoding="utf-8"?>
<svg xmlns="http://www.w3.org/2000/svg" width="394" height="200" viewBox="0 0 394 200" fill="none">
<path d="M18.6922 34.5628C27.4573 34.5628 34.5628 27.4572 34.5628 18.6921C34.5628 9.927 27.4573 2.82147 18.6922 2.82147C9.92706 2.82147 2.82153 9.927 2.82153 18.6921C2.82153 27.4572 9.92706 34.5628 18.6922 34.5628Z" fill="black"/>
<path d="M32.152 16.576C32.152 25.2059 25.1515 32.152 16.576 32.152C8.00057 32.152 1 25.2059 1 16.576C1 7.94619 8.00057 1 16.576 1C25.1515 1 32.152 7.94619 32.152 16.576Z" fill="#E44332" stroke="black" stroke-width="2"/>
<path d="M23.4394 21.4087C22.3801 22.9062 20.8648 24.0208 19.1199 24.5862C17.3749 25.1515 15.4939 25.1373 13.7577 24.5455C12.0215 23.9537 10.5233 22.8162 9.4869 21.3028C8.45048 19.7894 7.93143 17.9813 8.00727 16.1486C8.0831 14.3159 8.74975 12.5569 9.90765 11.1343C11.0656 9.71168 12.6526 8.7018 14.4317 8.25547C16.2109 7.80915 18.0866 7.95032 19.7789 8.6579C21.4712 9.36548 22.8892 10.6015 23.8212 12.1814L16.5 16.5L23.4394 21.4087Z" fill="white"/>
<path d="M54.968 28V23.104H50.648V14.644H55.544V10H50.648V5.644H47.516L44.96 10.144L41.288 11.764V14.644H44.456V20.908C44.456 25.552 46.184 28 51.692 28H54.968ZM67.1442 28.576C74.7762 28.576 77.4762 23.824 77.4762 19C77.4762 14.176 74.7762 9.424 67.1442 9.424C59.5122 9.424 56.8482 14.176 56.8482 19C56.8482 23.86 59.5122 28.576 67.1442 28.576ZM63.0402 19C63.0402 15.4 64.1922 14.248 67.1442 14.248C70.0962 14.248 71.2482 15.4 71.2482 19C71.2482 22.6 70.0962 23.752 67.1442 23.752C64.1922 23.752 63.0402 22.6 63.0402 19ZM92.5576 9.424C89.4976 9.424 87.4456 10.54 86.2216 12.448V10H80.0296V35.2H86.2216V25.48C87.4456 27.424 89.4976 28.576 92.5576 28.576C98.4616 28.576 100.802 24.04 100.802 19.036C100.802 13.852 98.4616 9.424 92.5576 9.424ZM90.4696 23.752C87.3016 23.752 86.2216 22.204 86.2216 19C86.2216 15.796 87.3016 14.248 90.4696 14.248C93.5296 14.248 94.6096 15.652 94.6096 19C94.6096 22.348 93.5296 23.752 90.4696 23.752ZM128.105 9.424C124.829 9.424 122.849 11.008 121.733 13.42C120.833 10.9 118.889 9.424 115.793 9.424C112.697 9.424 110.789 10.828 109.673 13.06V10H103.481V28H109.673V19.54C109.673 16.012 110.825 14.428 113.237 14.428C115.289 14.428 116.189 15.688 116.189 17.992V28H122.273V19.54C122.273 16.012 123.389 14.428 125.837 14.428C127.889 14.428 128.789 15.688 128.789 17.992V28H134.981V17.056C134.981 12.34 132.821 9.424 128.105 9.424ZM143.828 28.468C147.464 28.468 149.696 26.884 150.596 24.256C150.596 25.732 150.704 26.956 150.884 28H156.212C155.996 26.524 155.888 24.94 155.888 23.032V15.868C155.888 11.764 153.08 9.424 147.392 9.424C141.704 9.424 138.392 12.16 138.212 15.976H144.224C144.26 14.392 145.304 13.528 147.464 13.528C149.516 13.528 150.164 14.176 150.164 15.256C150.164 16.192 149.732 16.624 148.076 16.912L144.008 17.632C139.04 18.46 137.852 20.368 137.852 23.248C137.852 26.416 140.228 28.468 143.828 28.468ZM146.168 24.436C144.908 24.436 143.936 23.788 143.936 22.528C143.936 21.304 144.584 20.692 146.312 20.26L147.356 20.008C148.472 19.72 149.3 19.504 150.164 18.856V19.54C150.164 22.78 148.508 24.436 146.168 24.436ZM171.37 28V23.104H167.05V14.644H171.946V10H167.05V5.644H163.918L161.362 10.144L157.69 11.764V14.644H160.858V20.908C160.858 25.552 162.586 28 168.094 28H171.37ZM183.331 24.436C181.027 24.436 179.623 23.464 179.263 20.584H192.763C192.835 20.188 192.871 19.648 192.871 19.072C192.871 14.068 190.531 9.424 183.187 9.424C176.275 9.424 173.25 13.744 173.25 18.964C173.25 23.896 175.843 28.576 183.187 28.576C189.739 28.576 192.187 25.66 192.799 22.564H186.787C186.283 23.644 185.167 24.436 183.331 24.436ZM183.259 13.492C185.671 13.492 186.787 14.716 187.003 16.984H179.335C179.731 14.392 181.027 13.492 183.259 13.492Z" fill="black"/>
</svg>